<mxfile host="Electron" agent="Mozilla/5.0 (Windows NT 10.0; Win64; x64) AppleWebKit/537.36 (KHTML, like Gecko) draw.io/28.0.4 Chrome/138.0.7204.97 Electron/37.2.1 Safari/537.36" version="28.0.4">
  <diagram name="Page-1" id="lZQ3J0PK2U0jW57qhNPs">
    <mxGraphModel dx="2526" dy="537" grid="1" gridSize="10" guides="1" tooltips="1" connect="1" arrows="1" fold="1" page="1" pageScale="1" pageWidth="1654" pageHeight="1169" math="0" shadow="0">
      <root>
        <mxCell id="0" />
        <mxCell id="1" parent="0" />
        <mxCell id="DZK6iMkY0cH2o8_l7LUX-1" value="StepHandler" style="swimlane;fontStyle=1;align=center;verticalAlign=top;childLayout=stackLayout;horizontal=1;startSize=26;horizontalStack=0;resizeParent=1;resizeParentMax=0;resizeLast=0;collapsible=1;marginBottom=0;whiteSpace=wrap;html=1;fillColor=#ffff88;strokeColor=#36393d;" parent="1" vertex="1">
          <mxGeometry x="-255" y="1250" width="210" height="186" as="geometry" />
        </mxCell>
        <mxCell id="DZK6iMkY0cH2o8_l7LUX-3" value="- suivant: StepHandler" style="text;strokeColor=none;fillColor=none;align=left;verticalAlign=top;spacingLeft=4;spacingRight=4;overflow=hidden;rotatable=0;points=[[0,0.5],[1,0.5]];portConstraint=eastwest;whiteSpace=wrap;html=1;" parent="DZK6iMkY0cH2o8_l7LUX-1" vertex="1">
          <mxGeometry y="26" width="210" height="26" as="geometry" />
        </mxCell>
        <mxCell id="DZK6iMkY0cH2o8_l7LUX-5" value="" style="line;strokeWidth=1;fillColor=none;align=left;verticalAlign=middle;spacingTop=-1;spacingLeft=3;spacingRight=3;rotatable=0;labelPosition=right;points=[];portConstraint=eastwest;strokeColor=inherit;" parent="DZK6iMkY0cH2o8_l7LUX-1" vertex="1">
          <mxGeometry y="52" width="210" height="8" as="geometry" />
        </mxCell>
        <mxCell id="DZK6iMkY0cH2o8_l7LUX-6" value="+ definirSuivant (handler: StepHandler): void" style="text;strokeColor=none;fillColor=none;align=left;verticalAlign=top;spacingLeft=4;spacingRight=4;overflow=hidden;rotatable=0;points=[[0,0.5],[1,0.5]];portConstraint=eastwest;whiteSpace=wrap;html=1;" parent="DZK6iMkY0cH2o8_l7LUX-1" vertex="1">
          <mxGeometry y="60" width="210" height="40" as="geometry" />
        </mxCell>
        <mxCell id="DZK6iMkY0cH2o8_l7LUX-7" value="+ gererEtape(maison: Maison): void" style="text;strokeColor=none;fillColor=none;align=left;verticalAlign=top;spacingLeft=4;spacingRight=4;overflow=hidden;rotatable=0;points=[[0,0.5],[1,0.5]];portConstraint=eastwest;whiteSpace=wrap;html=1;" parent="DZK6iMkY0cH2o8_l7LUX-1" vertex="1">
          <mxGeometry y="100" width="210" height="26" as="geometry" />
        </mxCell>
        <mxCell id="K7NVsZmxyB2cskIGeQMV-19" value="+ peutGerer(maison: Maison): boolean" style="text;strokeColor=none;fillColor=none;align=left;verticalAlign=top;spacingLeft=4;spacingRight=4;overflow=hidden;rotatable=0;points=[[0,0.5],[1,0.5]];portConstraint=eastwest;whiteSpace=wrap;html=1;" vertex="1" parent="DZK6iMkY0cH2o8_l7LUX-1">
          <mxGeometry y="126" width="210" height="34" as="geometry" />
        </mxCell>
        <mxCell id="DZK6iMkY0cH2o8_l7LUX-8" value="+ executer(maison: Maison): void" style="text;strokeColor=none;fillColor=none;align=left;verticalAlign=top;spacingLeft=4;spacingRight=4;overflow=hidden;rotatable=0;points=[[0,0.5],[1,0.5]];portConstraint=eastwest;whiteSpace=wrap;html=1;" parent="DZK6iMkY0cH2o8_l7LUX-1" vertex="1">
          <mxGeometry y="160" width="210" height="26" as="geometry" />
        </mxCell>
        <mxCell id="DZK6iMkY0cH2o8_l7LUX-24" value="MaisonBuilder" style="swimlane;fontStyle=1;align=center;verticalAlign=top;childLayout=stackLayout;horizontal=1;startSize=26;horizontalStack=0;resizeParent=1;resizeParentMax=0;resizeLast=0;collapsible=1;marginBottom=0;whiteSpace=wrap;html=1;fillColor=#b1ddf0;strokeColor=#10739e;" parent="1" vertex="1">
          <mxGeometry x="-200" y="1109" width="170" height="52" as="geometry" />
        </mxCell>
        <mxCell id="DZK6iMkY0cH2o8_l7LUX-27" value="+ construireMaison(): Maison" style="text;strokeColor=none;fillColor=none;align=left;verticalAlign=top;spacingLeft=4;spacingRight=4;overflow=hidden;rotatable=0;points=[[0,0.5],[1,0.5]];portConstraint=eastwest;whiteSpace=wrap;html=1;" parent="DZK6iMkY0cH2o8_l7LUX-24" vertex="1">
          <mxGeometry y="26" width="170" height="26" as="geometry" />
        </mxCell>
        <mxCell id="DZK6iMkY0cH2o8_l7LUX-32" value="MurHandler" style="swimlane;fontStyle=1;align=center;verticalAlign=top;childLayout=stackLayout;horizontal=1;startSize=26;horizontalStack=0;resizeParent=1;resizeParentMax=0;resizeLast=0;collapsible=1;marginBottom=0;whiteSpace=wrap;html=1;fillColor=#fad7ac;strokeColor=#b46504;" parent="1" vertex="1">
          <mxGeometry x="26.25" y="1490" width="140" height="100" as="geometry" />
        </mxCell>
        <mxCell id="DZK6iMkY0cH2o8_l7LUX-36" value="&lt;div style=&quot;text-align: center;&quot;&gt;&lt;span style=&quot;text-align: left;&quot;&gt;+ peutGerer(maison: Maison): boolean&lt;/span&gt;&lt;/div&gt;" style="text;strokeColor=none;fillColor=none;align=left;verticalAlign=top;spacingLeft=4;spacingRight=4;overflow=hidden;rotatable=0;points=[[0,0.5],[1,0.5]];portConstraint=eastwest;whiteSpace=wrap;html=1;" parent="DZK6iMkY0cH2o8_l7LUX-32" vertex="1">
          <mxGeometry y="26" width="140" height="34" as="geometry" />
        </mxCell>
        <mxCell id="DZK6iMkY0cH2o8_l7LUX-38" value="&lt;div style=&quot;text-align: center;&quot;&gt;+ executer(maison: Maison): void&lt;/div&gt;" style="text;strokeColor=none;fillColor=none;align=left;verticalAlign=top;spacingLeft=4;spacingRight=4;overflow=hidden;rotatable=0;points=[[0,0.5],[1,0.5]];portConstraint=eastwest;whiteSpace=wrap;html=1;" parent="DZK6iMkY0cH2o8_l7LUX-32" vertex="1">
          <mxGeometry y="60" width="140" height="40" as="geometry" />
        </mxCell>
        <mxCell id="DZK6iMkY0cH2o8_l7LUX-40" value="&lt;font style=&quot;font-size: 14px;&quot;&gt;Builder avec Chaine de Responsabilite&lt;/font&gt;" style="rounded=1;whiteSpace=wrap;html=1;strokeWidth=3;fillColor=#f8cecc;strokeColor=#b85450;" parent="1" vertex="1">
          <mxGeometry x="-140" y="970" width="590" height="60" as="geometry" />
        </mxCell>
        <mxCell id="DZK6iMkY0cH2o8_l7LUX-96" value="FondationHandler" style="swimlane;fontStyle=1;align=center;verticalAlign=top;childLayout=stackLayout;horizontal=1;startSize=26;horizontalStack=0;resizeParent=1;resizeParentMax=0;resizeLast=0;collapsible=1;marginBottom=0;whiteSpace=wrap;html=1;fillColor=#b0e3e6;strokeColor=#0e8088;" parent="1" vertex="1">
          <mxGeometry x="-235" y="1490" width="140" height="100" as="geometry" />
        </mxCell>
        <mxCell id="DZK6iMkY0cH2o8_l7LUX-99" value="+ peutGerer(maison: Maison): boolean" style="text;strokeColor=none;fillColor=none;align=left;verticalAlign=top;spacingLeft=4;spacingRight=4;overflow=hidden;rotatable=0;points=[[0,0.5],[1,0.5]];portConstraint=eastwest;whiteSpace=wrap;html=1;" parent="DZK6iMkY0cH2o8_l7LUX-96" vertex="1">
          <mxGeometry y="26" width="140" height="34" as="geometry" />
        </mxCell>
        <mxCell id="DZK6iMkY0cH2o8_l7LUX-100" value="&lt;div style=&quot;text-align: center;&quot;&gt;+ executer(maison: Maison): void&lt;/div&gt;" style="text;strokeColor=none;fillColor=none;align=left;verticalAlign=top;spacingLeft=4;spacingRight=4;overflow=hidden;rotatable=0;points=[[0,0.5],[1,0.5]];portConstraint=eastwest;whiteSpace=wrap;html=1;" parent="DZK6iMkY0cH2o8_l7LUX-96" vertex="1">
          <mxGeometry y="60" width="140" height="40" as="geometry" />
        </mxCell>
        <mxCell id="DZK6iMkY0cH2o8_l7LUX-108" value="" style="endArrow=block;dashed=1;endFill=0;endSize=12;html=1;rounded=0;entryX=-0.016;entryY=0.809;entryDx=0;entryDy=0;exitX=1;exitY=0.5;exitDx=0;exitDy=0;entryPerimeter=0;" parent="1" source="DZK6iMkY0cH2o8_l7LUX-27" target="K7NVsZmxyB2cskIGeQMV-2" edge="1">
          <mxGeometry width="160" relative="1" as="geometry">
            <mxPoint x="140" y="1360" as="sourcePoint" />
            <mxPoint x="203.13" y="1333" as="targetPoint" />
          </mxGeometry>
        </mxCell>
        <mxCell id="DZK6iMkY0cH2o8_l7LUX-112" value="" style="endArrow=diamondThin;endFill=1;endSize=24;html=1;rounded=0;exitX=0.995;exitY=-0.017;exitDx=0;exitDy=0;entryX=0;entryY=0.5;entryDx=0;entryDy=0;exitPerimeter=0;" parent="1" source="DZK6iMkY0cH2o8_l7LUX-100" edge="1">
          <mxGeometry width="160" relative="1" as="geometry">
            <mxPoint x="-110" y="1646" as="sourcePoint" />
            <mxPoint x="26.25" y="1529" as="targetPoint" />
          </mxGeometry>
        </mxCell>
        <mxCell id="DZK6iMkY0cH2o8_l7LUX-117" value="" style="endArrow=diamondThin;endFill=0;endSize=24;html=1;rounded=0;exitX=1;exitY=0.5;exitDx=0;exitDy=0;entryX=0.41;entryY=1.051;entryDx=0;entryDy=0;entryPerimeter=0;" parent="1" target="DZK6iMkY0cH2o8_l7LUX-8" edge="1">
          <mxGeometry width="160" relative="1" as="geometry">
            <mxPoint x="-172.5" y="1490" as="sourcePoint" />
            <mxPoint x="-57.5" y="1474" as="targetPoint" />
          </mxGeometry>
        </mxCell>
        <mxCell id="K7NVsZmxyB2cskIGeQMV-1" value="Maison" style="swimlane;fontStyle=1;align=center;verticalAlign=top;childLayout=stackLayout;horizontal=1;startSize=26;horizontalStack=0;resizeParent=1;resizeParentMax=0;resizeLast=0;collapsible=1;marginBottom=0;whiteSpace=wrap;html=1;fillColor=#b1ddf0;strokeColor=#10739e;" vertex="1" parent="1">
          <mxGeometry x="136.25" y="1085" width="160" height="140" as="geometry" />
        </mxCell>
        <mxCell id="K7NVsZmxyB2cskIGeQMV-2" value="- fondation: boolean&lt;div&gt;- murs: boolean&lt;/div&gt;&lt;div&gt;- toit: boolean&lt;/div&gt;" style="text;strokeColor=none;fillColor=none;align=left;verticalAlign=top;spacingLeft=4;spacingRight=4;overflow=hidden;rotatable=0;points=[[0,0.5],[1,0.5]];portConstraint=eastwest;whiteSpace=wrap;html=1;" vertex="1" parent="K7NVsZmxyB2cskIGeQMV-1">
          <mxGeometry y="26" width="160" height="54" as="geometry" />
        </mxCell>
        <mxCell id="K7NVsZmxyB2cskIGeQMV-3" value="" style="line;strokeWidth=1;fillColor=none;align=left;verticalAlign=middle;spacingTop=-1;spacingLeft=3;spacingRight=3;rotatable=0;labelPosition=right;points=[];portConstraint=eastwest;strokeColor=inherit;" vertex="1" parent="K7NVsZmxyB2cskIGeQMV-1">
          <mxGeometry y="80" width="160" height="8" as="geometry" />
        </mxCell>
        <mxCell id="K7NVsZmxyB2cskIGeQMV-4" value="+ setFondation()" style="text;strokeColor=none;fillColor=none;align=left;verticalAlign=top;spacingLeft=4;spacingRight=4;overflow=hidden;rotatable=0;points=[[0,0.5],[1,0.5]];portConstraint=eastwest;whiteSpace=wrap;html=1;" vertex="1" parent="K7NVsZmxyB2cskIGeQMV-1">
          <mxGeometry y="88" width="160" height="26" as="geometry" />
        </mxCell>
        <mxCell id="K7NVsZmxyB2cskIGeQMV-5" value="&lt;div style=&quot;text-align: center;&quot;&gt;&lt;span style=&quot;background-color: transparent; color: light-dark(rgb(0, 0, 0), rgb(255, 255, 255));&quot;&gt;+ aFondation&lt;/span&gt;&lt;span style=&quot;background-color: transparent; color: light-dark(rgb(0, 0, 0), rgb(255, 255, 255));&quot;&gt;()&lt;/span&gt;&lt;/div&gt;" style="text;strokeColor=none;fillColor=none;align=left;verticalAlign=top;spacingLeft=4;spacingRight=4;overflow=hidden;rotatable=0;points=[[0,0.5],[1,0.5]];portConstraint=eastwest;whiteSpace=wrap;html=1;" vertex="1" parent="K7NVsZmxyB2cskIGeQMV-1">
          <mxGeometry y="114" width="160" height="26" as="geometry" />
        </mxCell>
        <mxCell id="K7NVsZmxyB2cskIGeQMV-9" value="" style="endArrow=diamondThin;endFill=1;endSize=24;html=1;rounded=0;exitX=1;exitY=0.5;exitDx=0;exitDy=0;entryX=0.029;entryY=0.303;entryDx=0;entryDy=0;entryPerimeter=0;" edge="1" parent="1" target="K7NVsZmxyB2cskIGeQMV-14">
          <mxGeometry width="160" relative="1" as="geometry">
            <mxPoint x="166.25" y="1556.5" as="sourcePoint" />
            <mxPoint x="296.25" y="1533.5" as="targetPoint" />
          </mxGeometry>
        </mxCell>
        <mxCell id="K7NVsZmxyB2cskIGeQMV-10" value="ToitHandler" style="swimlane;fontStyle=1;align=center;verticalAlign=top;childLayout=stackLayout;horizontal=1;startSize=26;horizontalStack=0;resizeParent=1;resizeParentMax=0;resizeLast=0;collapsible=1;marginBottom=0;whiteSpace=wrap;html=1;fillColor=#f8cecc;strokeColor=#b85450;" vertex="1" parent="1">
          <mxGeometry x="296.25" y="1490" width="140" height="110" as="geometry" />
        </mxCell>
        <mxCell id="K7NVsZmxyB2cskIGeQMV-14" value="&lt;div style=&quot;text-align: center;&quot;&gt;&lt;span style=&quot;text-align: left;&quot;&gt;+ peutGerer(maison: Maison): boolean&lt;/span&gt;&lt;/div&gt;" style="text;strokeColor=none;fillColor=none;align=left;verticalAlign=top;spacingLeft=4;spacingRight=4;overflow=hidden;rotatable=0;points=[[0,0.5],[1,0.5]];portConstraint=eastwest;whiteSpace=wrap;html=1;" vertex="1" parent="K7NVsZmxyB2cskIGeQMV-10">
          <mxGeometry y="26" width="140" height="44" as="geometry" />
        </mxCell>
        <mxCell id="K7NVsZmxyB2cskIGeQMV-15" value="&lt;div style=&quot;text-align: center;&quot;&gt;+ executer(maison: Maison): void&lt;/div&gt;" style="text;strokeColor=none;fillColor=none;align=left;verticalAlign=top;spacingLeft=4;spacingRight=4;overflow=hidden;rotatable=0;points=[[0,0.5],[1,0.5]];portConstraint=eastwest;whiteSpace=wrap;html=1;" vertex="1" parent="K7NVsZmxyB2cskIGeQMV-10">
          <mxGeometry y="70" width="140" height="40" as="geometry" />
        </mxCell>
        <mxCell id="K7NVsZmxyB2cskIGeQMV-20" value="" style="endArrow=block;dashed=1;endFill=0;endSize=12;html=1;rounded=0;entryX=0.568;entryY=-0.004;entryDx=0;entryDy=0;exitX=0.48;exitY=1.167;exitDx=0;exitDy=0;entryPerimeter=0;exitPerimeter=0;" edge="1" parent="1" source="DZK6iMkY0cH2o8_l7LUX-27" target="DZK6iMkY0cH2o8_l7LUX-1">
          <mxGeometry width="160" relative="1" as="geometry">
            <mxPoint x="-145" y="1200" as="sourcePoint" />
            <mxPoint x="19" y="1207" as="targetPoint" />
          </mxGeometry>
        </mxCell>
      </root>
    </mxGraphModel>
  </diagram>
</mxfile>
